<svg width="20" height="20" viewBox="0 0 20 20" fill="none" xmlns="http://www.w3.org/2000/svg">
<path fill-rule="evenodd" clip-rule="evenodd" d="M10.0007 5.00004C12.7506 5.00004 15.0007 7.25004 15.0007 10C15.0007 12.75 12.7506 15 10.0007 15C7.25065 15 5.00065 12.75 5.00065 10C5.00065 7.25004 7.25065 5.00004 10.0007 5.00004ZM10.0007 3.33337C6.33398 3.33337 3.33398 6.33337 3.33398 10C3.33398 13.6667 6.33398 16.6667 10.0007 16.6667C13.6673 16.6667 16.6673 13.6667 16.6673 10C16.6673 6.33337 13.6673 3.33337 10.0007 3.33337ZM10.8343 7.50006C10.8343 7.00006 10.501 6.66673 10.001 6.66673C9.50101 6.66673 9.16768 7.0834 9.16768 7.50006V9.16673C9.16768 9.66673 9.50101 10.0001 10.001 10.0001C10.501 10.0001 10.8343 9.66673 10.8343 9.16673V7.50006ZM10.8343 12.5001C10.8343 12.9603 10.4612 13.3334 10.001 13.3334C9.54077 13.3334 9.16768 12.9603 9.16768 12.5001C9.16768 12.0398 9.54077 11.6667 10.001 11.6667C10.4612 11.6667 10.8343 12.0398 10.8343 12.5001Z" fill="#F0CD6E"/>
</svg>